<?xml version="1.0" encoding="utf-8"?>
<!-- Generator: Adobe Illustrator 16.0.3, SVG Export Plug-In . SVG Version: 6.00 Build 0)  -->
<!DOCTYPE svg PUBLIC "-//W3C//DTD SVG 1.1//EN" "http://www.w3.org/Graphics/SVG/1.1/DTD/svg11.dtd">
<svg version="1.1" id="Layer_1" xmlns="http://www.w3.org/2000/svg" xmlns:xlink="http://www.w3.org/1999/xlink" x="0px" y="0px"
	 width="367.061px" height="401.09px" viewBox="0 0 367.061 401.09" enable-background="new 0 0 367.061 401.09"
	 xml:space="preserve">
<g id="Layer_1_1_" display="none">
	
		<image display="inline" overflow="visible" opacity="0.3" enable-background="new    " width="367" height="401" xlink:href="D0C1D5C4.png"  transform="matrix(1.0002 0 0 1.0002 -0.0012 0.3496)">
	</image>
</g>
<path fill="none" stroke="#000000" stroke-miterlimit="10" d="M53.5,61.5c3.869,14.24,17.574,20.408,36.25,15.25"/>
<path fill="none" stroke="#000000" stroke-miterlimit="10" d="M89.75,76.75c4.623,6.756,27.692,15.437,45.75,10.25"/>
<path fill="none" stroke="#000000" stroke-miterlimit="10" d="M135.5,87c14.835,9.298,28.313,6.557,41.75-1.25"/>
<path fill="none" stroke="#000000" stroke-miterlimit="10" d="M177.25,85.75c8.034,5.294,25.622,7.35,42.25-5"/>
<path fill="none" stroke="#000000" stroke-miterlimit="10" d="M219.5,80.75c10.782,3.898,27.914,5.954,39.75-7.75"/>
<path fill="none" stroke="#000000" stroke-miterlimit="10" d="M259.25,73c18.314,1.37,34.076-1.6,41.001-14.25"/>
<path fill="none" stroke="#000000" stroke-miterlimit="10" d="M300.251,58.75c9.979,0.087,13.86-1.283,20.25-8.5"/>
<path fill="none" stroke="#000000" stroke-miterlimit="10" d="M320.501,8.25C313.428,3.33,293.098-3.751,274.5,18"/>
<path fill="none" stroke="#000000" stroke-miterlimit="10" d="M274.5,18c-2.833,0.171-17.083-1.579-31.25,11.75"/>
<path fill="none" stroke="#000000" stroke-miterlimit="10" d="M243.25,29.75c-10.833-2.829-14.417-4.157-32.667,6.921"/>
<path fill="none" stroke="#000000" stroke-miterlimit="10" d="M210.417,36.921c-0.5-0.662-15.334-11.25-33.5,2.75"/>
<path fill="none" stroke="#000000" stroke-miterlimit="10" d="M176.917,39.671c0,0.276-15.667-9.417-31.917-0.671"/>
<path fill="none" stroke="#000000" stroke-miterlimit="10" d="M145,39c-5-9.25-21-11.5-30-6.75"/>
<path fill="none" stroke="#000000" stroke-miterlimit="10" d="M115,32.25C110.25,23,73,7.75,49.25,37"/>
<path fill="none" stroke="#000000" stroke-miterlimit="10" d="M49.25,37c-18,10-19.25,32.75-10,44.25"/>
<path fill="none" stroke="#000000" stroke-miterlimit="10" d="M54.627,83.278c5.71-0.685,7.538-1.599,13.935-5.71"/>
<path fill="none" stroke="#000000" stroke-miterlimit="10" d="M38.638,80.998c-5.025,22.613,0,30.836,4.34,37.917"/>
<path fill="none" stroke="#000000" stroke-miterlimit="10" d="M42.978,118.916c-2.97,12.106-5.481,23.527,2.057,33.35"/>
<path fill="none" stroke="#000000" stroke-miterlimit="10" d="M45.034,152.265c-4.112,14.165,0,27.185,4.796,31.753"/>
<path fill="none" stroke="#000000" stroke-miterlimit="10" d="M49.831,184.018c-2.513,13.249-3.883,24.898,4.111,35.632"/>
<path fill="none" stroke="#000000" stroke-miterlimit="10" d="M53.942,219.65c1.143,33.808,52.766,38.832,57.79,12.105"/>
<path fill="none" stroke="#000000" stroke-miterlimit="10" d="M120.413,208.23c1.827,19.416-7.662,25.127-17.131,25.127"/>
<path fill="none" stroke="#000000" stroke-miterlimit="10" d="M116.529,227.646c7.805,1.602,12.222,5.018,17.138,10.518"/>
<path fill="none" stroke="#000000" stroke-miterlimit="10" d="M110.417,236.164c6.333-5.666,24.25,6,23.083,1.667"/>
<path fill="none" stroke="#000000" stroke-miterlimit="10" d="M108.183,202.271c-0.481,0.804-3.854,3.533-1.605,8.028"/>
<path fill="none" stroke="#000000" stroke-miterlimit="10" d="M107.775,202.456c1.558,0.179,3.987,1.056,7.059-3.104"/>
<path fill="none" stroke="#000000" stroke-miterlimit="10" d="M107.775,202.456c0-3.088-3.23-3.784-0.085-8.079"/>
<path fill="none" stroke="#000000" stroke-miterlimit="10" d="M107.69,202.583c-2.424,0.894-6.25,0.468-6.335-3.061"/>
<path fill="none" stroke="#000000" stroke-miterlimit="10" d="M107.945,202.541c0,3.055,2.608,5.018,5.57,5.018"/>
<path fill="none" stroke="#000000" stroke-miterlimit="10" d="M100.907,173.22c9.917,5.149,10.87,12.778,12.587,18.118"/>
<path fill="none" stroke="#000000" stroke-miterlimit="10" d="M91.752,138.696c14.494,18.69,11.252,27.654,11.063,34.71"/>
<path fill="none" stroke="#000000" stroke-miterlimit="10" d="M86.603,102.459c11.063,20.025,7.818,31.85,6.866,37.38"/>
<path fill="none" stroke="#000000" stroke-miterlimit="10" d="M89.75,76.75c3.15,17.208,1.268,26.489-0.478,30.859"/>
<path fill="none" stroke="#000000" stroke-miterlimit="10" d="M315.751,8c26.5-1.25,27,13.75,24.5,33.75"/>
<path fill="none" stroke="#000000" stroke-miterlimit="10" d="M339.501,41.25c4.75,20.5-3,30.75-6,34"/>
<path fill="none" stroke="#000000" stroke-miterlimit="10" d="M333.501,75.25c5,14.5,2.5,24-3.25,34.75"/>
<path fill="none" stroke="#000000" stroke-miterlimit="10" d="M330.251,110c8,16.25,2.75,30-1,33.5"/>
<path fill="none" stroke="#000000" stroke-miterlimit="10" d="M329.251,143.5c8,18.75,4,41.5-4.25,45"/>
<path fill="none" stroke="#000000" stroke-miterlimit="10" d="M325.001,188.5c4.25,13.25,5.25,33.25-1.75,39.5"/>
<path fill="none" stroke="#000000" stroke-miterlimit="10" d="M323.251,228c6.5,22.25-2,44.25-7.5,50.25"/>
<path fill="none" stroke="#000000" stroke-miterlimit="10" d="M297.751,310c10.25-8.5,18.25-19,18-31.75"/>
<path fill="none" stroke="#000000" stroke-miterlimit="10" d="M247,342.25c14.25,10,47.75-6.5,50.751-32.25"/>
<path fill="none" stroke="#000000" stroke-miterlimit="10" d="M247,342.25c-3.25,7.25-33.5,22.5-57.5,3.25"/>
<path fill="none" stroke="#000000" stroke-miterlimit="10" d="M136.75,317.5c2.25,31.25,40.25,39,52.75,28"/>
<path fill="none" stroke="#000000" stroke-miterlimit="10" d="M167.75,350.25c-2,9.5-7.945,13.818-10.25,20
	c-4.19,11.246-3.5,13.75-2.5,23"/>
<path fill="none" stroke="#000000" stroke-miterlimit="10" d="M116.25,310c-9.75,24.75-3.803,36.15,4.31,47.262
	C131.5,372.25,137.75,375,141.5,394.5"/>
<path fill="none" stroke="#000000" stroke-miterlimit="10" d="M180.25,290.75c-24.5-35.25-67.5-3.25-64,19.25"/>
<path fill="none" stroke="#000000" stroke-miterlimit="10" d="M171,297.25c31-25,57.25-9,64.5-1.25"/>
<path fill="none" stroke="#000000" stroke-miterlimit="10" d="M235.5,296c1-4.5,6.25-6.75,13-5.25"/>
<path fill="none" stroke="#000000" stroke-miterlimit="10" d="M248.5,290.75c0.5-15.5,7.25-23.25,17.25-27.75"/>
<path fill="none" stroke="#000000" stroke-miterlimit="10" d="M263.25,264c0-14.785,4.75-25.5,10-27.75"/>
<path fill="none" stroke="#000000" stroke-miterlimit="10" d="M278.25,188.75c-15.5,22.75-6,32.25-5,47.5"/>
<path fill="none" stroke="#000000" stroke-miterlimit="10" d="M278.25,188.75c-3-9.75-7.25-32.25,4.5-42.5"/>
<path fill="none" stroke="#000000" stroke-miterlimit="10" d="M282,146.25C280,132,275.5,130,288.5,108"/>
<path fill="none" stroke="#000000" stroke-miterlimit="10" d="M286.25,70.25c-2.5,26.5-2,26,1.75,38.5"/>
<g>
	<path fill="none" stroke="#2B00FF" stroke-miterlimit="10" d="M259.473,246.443c-3.75-9.545-36.775-41.731-57.109-7.624"/>
	<path fill="none" stroke="#2B00FF" stroke-miterlimit="10" d="M252.379,275.703c-26.655,8.724-86.405-20.76-127.989-53.76"/>
	<path fill="none" stroke="#2B00FF" stroke-miterlimit="10" d="M256.463,241.579c-3.157,30.108-60.905-2.767-108.12-35.88
		c-11.11-7.792-28.286-17.671-35.034-14.957"/>
	<path fill="none" stroke="#2B00FF" stroke-miterlimit="10" d="M271.573,226.027c-7.113-8.773-53.017-40.333-73.198-14.33"/>
	<path fill="none" stroke="#2B00FF" stroke-miterlimit="10" d="M274.047,195.694c0,5.5-11.324,25.281-31.49,6.088"/>
	<path fill="none" stroke="#2B00FF" stroke-miterlimit="10" d="M208.389,219.027c-26.5,0.019,3.5-57.333,34.167-17.375"/>
	<path fill="none" stroke="#2B00FF" stroke-miterlimit="10" d="M94.846,136.24c113.615-51.366,136.467-49.202,143.377-18.546"/>
	<path fill="none" stroke="#2B00FF" stroke-miterlimit="10" d="M238.223,117.694c7.5,37.75-45.525,49.857-86.775,16.517"/>
	<path fill="none" stroke="#2B00FF" stroke-miterlimit="10" d="M110.091,151.616c86.036-35.811,100.383-45.171,108.383-29.817"/>
	<path fill="none" stroke="#2B00FF" stroke-miterlimit="10" d="M173.462,125.295c6.264,8.461,53.512,14.05,45.012-3.497"/>
	<path fill="none" stroke="#2B00FF" stroke-miterlimit="10" d="M217.983,120.906c-8.593,0.892-18.26,7.071-22.145,12.25"/>
	<path fill="none" stroke="#2B00FF" stroke-miterlimit="10" d="M181.778,150.514c-10.887,24.043-93.805,13.681-65.981-7"/>
	<path fill="none" stroke="#2B00FF" stroke-miterlimit="10" d="M206.355,88.426c0.801,4.403-0.782,2.136,3.035,7.473"/>
	<path fill="none" stroke="#2B00FF" stroke-miterlimit="10" d="M236.694,84.306c5.862,13.889,40.029,17.722,22.749-10.656"/>
	<path fill="none" stroke="#2B00FF" stroke-miterlimit="10" d="M255.15,118.2c14.874-0.506,24.794-6.274,29.748-25.667"/>
	<path fill="none" stroke="#2B00FF" stroke-miterlimit="10" d="M281.223,141.694c-6.062-11.333-24.761-29.167-43-25.625"/>
	<path fill="none" stroke="#2B00FF" stroke-miterlimit="10" d="M211.45,152.923c-25.728,36.08-78.652,42.761-104.943,24.712"/>
	<path fill="none" stroke="#2B00FF" stroke-miterlimit="10" d="M92.101,114.917c9.447,9.679,19.396,10.777,33.525,7.774"/>
	<path fill="none" stroke="#2B00FF" stroke-miterlimit="10" d="M106.005,86.485c0,11.709,0.502,21.773,21.052,16.624"/>
	<path fill="none" stroke="#2B00FF" stroke-miterlimit="10" d="M156.568,109.399c-7.678-6.291-13.178-8.613-29.511-6.291"/>
	<path fill="none" stroke="#2B00FF" stroke-miterlimit="10" d="M187.27,174.915c-19.273,8.162-20.734,44.112-9.606,50.276"/>
	<path fill="none" stroke="#2B00FF" stroke-miterlimit="10" d="M243.546,170.157c-7.678-6.291-28.229-15.373-51.699,1.851"/>
	<path fill="none" stroke="#2B00FF" stroke-miterlimit="10" d="M265.89,163.861c2.553,17.667-6.417,26.422-22.345,6.296"/>
	<path fill="none" stroke="#2B00FF" stroke-miterlimit="10" d="M265.89,163.861c-1.167-7.161-6.417-21.5-30.271-25.576"/>
	<path fill="none" stroke="#2B00FF" stroke-miterlimit="10" d="M120.012,221.271c0-0.711,4.442-0.135,5.608,1.645"/>
</g>
<path fill="none" stroke="#000000" stroke-miterlimit="10" d="M113.494,191.338c3.034,6.041,5.574,7.884,6.919,16.893"/>
</svg>
