<?xml version="1.0" standalone="no"?>
<!DOCTYPE svg PUBLIC "-//W3C//DTD SVG 20010904//EN"
 "http://www.w3.org/TR/2001/REC-SVG-20010904/DTD/svg10.dtd">
<svg version="1.0" xmlns="http://www.w3.org/2000/svg"
 width="311.000000pt" height="404.000000pt" viewBox="0 0 311.000000 404.000000"
 preserveAspectRatio="xMidYMid meet">
<metadata>
Created by potrace 1.11, written by Peter Selinger 2001-2013
</metadata>
<g transform="translate(0.000000,404.000000) scale(0.100000,-0.100000)"
fill="#000000" stroke="none">
<path d="M1232 3114 l-2 -872 25 -86 c28 -96 82 -212 125 -266 16 -20 53 -56
84 -80 64 -51 67 -59 96 -224 29 -170 34 -268 21 -371 -20 -153 -23 -158 -100
-190 -46 -19 -98 -31 -171 -38 -97 -10 -116 -8 -256 17 -95 17 -165 25 -187
21 -23 -5 -38 -3 -45 7 -96 117 -132 138 -247 146 -81 5 -86 4 -132 -26 -118
-76 -174 -175 -193 -337 -7 -56 -9 -133 -5 -175 11 -119 53 -299 87 -370 36
-76 99 -186 123 -215 16 -19 16 -18 1 8 -64 107 -80 136 -111 203 -38 80 -79
251 -90 374 -10 113 10 261 46 340 34 74 72 117 142 162 46 30 51 31 132 26
95 -6 153 -33 199 -90 54 -69 56 -70 93 -63 23 4 91 -4 187 -21 140 -25 159
-27 256 -17 128 13 236 53 252 93 22 55 40 216 34 305 -6 93 -39 307 -57 361
-6 19 -33 50 -69 79 -33 27 -71 62 -84 79 -34 45 -90 160 -117 241 l-24 70 -5
890 -5 890 -3 -871z"/>
<path d="M1505 3105 l0 -870 24 -52 c44 -98 162 -181 238 -167 44 8 100 34
161 76 103 71 284 125 378 113 135 -17 189 -43 306 -154 201 -188 285 -546
203 -856 -44 -162 -127 -345 -229 -503 -149 -230 -438 -454 -656 -508 -57 -14
-111 -18 -225 -18 -132 1 -162 4 -250 28 -139 39 -259 103 -348 186 -39 37
-83 86 -97 109 -18 30 -41 50 -81 71 -84 43 -155 104 -211 181 -47 65 -53 69
-89 69 -34 0 -42 -5 -66 -42 -26 -38 -28 -49 -27 -132 1 -109 19 -177 79 -297
39 -77 181 -279 208 -296 5 -3 -27 42 -72 101 -85 112 -157 243 -185 336 -9
30 -19 93 -22 140 -5 77 -4 89 18 130 22 40 29 45 64 48 38 3 42 1 79 -53 50
-73 133 -146 209 -186 42 -22 69 -44 86 -71 14 -22 60 -73 102 -113 93 -88
210 -151 353 -191 88 -24 118 -27 250 -28 184 -1 260 16 395 85 230 118 462
356 586 601 51 100 115 263 139 353 83 313 -2 666 -208 861 -122 116 -174 142
-311 159 -94 12 -275 -42 -378 -113 -61 -42 -117 -68 -161 -76 -75 -14 -185
62 -228 157 l-24 52 -5 870 -6 870 1 -870z"/>
</g>
</svg>
